# xmcd
#
# Track frame offsets:
#	150
#	13354
#	19509
#	25249
#	36427
#	39611
#	46068
#	55726
#	63221
#	78242
#	97530
#	101154
#	104156
#	114043
#	125984
#	132296
#	144406
#	148045
#	167306
#	175931
#	194836
#
# Disc length: 2706
#
# Revision: 2
# Processed by: cddbd v1.5.1PL0 Copyright (c) Steve Scherf et al.
# Submitted via: MusiCat 1.0
# Normalized: r1:TDELIM( - )
#
DISCID=1f0a9015
DTITLE=Various Artists (Soundtrack) - Exterminio
DYEAR=1900
DGENRE=
TTITLE0=John Murphy - The Beginning
TTITLE1=John Murphy - Rage
TTITLE2=John Murphy - The Church
TTITLE3=John Murphy - Jim's Parents (Abide With Me)
TTITLE4=John Murphy - Then There Were 2
TTITLE5=John Murphy - Tower Block
TTITLE6=John Murphy - Taxi (Ave Maria)
TTITLE7=John Murphy - The Tunnel
TTITLE8=Grandaddy - Am 180
TTITLE9=Brian Eno - An Ending (Ascent)
TTITLE10=John Murphy - No More Films
TTITLE11=John Murphy - Jim's Dream
TTITLE12=John Murphy - In Paradisum
TTITLE13=John Murphy - Frank's Death-soldiers (Requiem In D Minor)
TTITLE14=John Murphy - I Promised Them Women
TTITLE15=John Murphy - The Search For Jim
TTITLE16=John Murphy - Red Dresses
TTITLE17=John Murphy - In The House - In a Heartbeat
TTITLE18=John Murphy - The End
TTITLE19=Blue States - Season Song
TTITLE20=John Murphy - End Credits
EXTD=2003\nRoadrunner\n\nOriginal Soundtrack
EXTT0=John Murphy
EXTT1=John Murphy
EXTT2=John Murphy
EXTT3=John Murphy
EXTT4=John Murphy
EXTT5=John Murphy
EXTT6=John Murphy
EXTT7=John Murphy
EXTT8=Grandaddy
EXTT9=Brian Eno 
EXTT10=John Murphy
EXTT11=John Murphy
EXTT12=John Murphy
EXTT13=John Murphy
EXTT14=John Murphy
EXTT15=John Murphy
EXTT16=John Murphy
EXTT17=John Murphy
EXTT18=John Murphy
EXTT19=Blue States
EXTT20=John Murphy
PLAYORDER=
